<svg xmlns="http://www.w3.org/2000/svg" id="mainsvg" width="672.4953125000001" height="422.40000000000003" viewBox="-10 -10 611.359375 384"><defs><marker id="arrow" viewBox="0 0 10 10" refX="10" refY="5" markerWidth="5" markerHeight="5" orient="auto-start-reverse" fill="black"><path d="M 0 0 L 10 5 L 0 10 z"/></marker><filter id="shadowOLD" x="-50%" y="-50%" width="250%" height="250%"><feDropShadow flood-color="black" flood-opacity="0.3" dx="1" dy="1" stdDeviation="2"> </feDropShadow></filter><filter id="shadow-path" filterUnits="userSpaceOnUse" x="-10" y="-10" width="611.359375px" height="384px"><feDropShadow flood-color="black" flood-opacity="0.3" dx="1" dy="1" stdDeviation="2"> </feDropShadow></filter><filter id="shadow" filterUnits="userSpaceOnUse" x="-10" y="-10" width="711.359375px" height="484px"><feDropShadow flood-color="black" flood-opacity="0.3" dx="1" dy="1" stdDeviation="2"> </feDropShadow></filter></defs><rect x="-10" y="-10" width="611.359375" height="384" fill="#fff"/><g transform="translate(0, 0)"><rect width="591.359375" height="364" stroke="black" fill="#fff" stroke-width="2" transform="translate(0, 0)" rx="2"/><g transform="translate(4, 4)"><rect width="94.3662109375" height="23.5" stroke="black" fill="white" stroke-width="0" transform="translate(0, 0)" rx="0"/><text fill="black" font-size="14" font-weight="normal" transform="translate(4, 4)" alignment-baseline="middle" font-family="Arial"><tspan x="0" dy="14" font-family="Arial" font-size="14" font-weight="normal">Host Program</tspan></text></g><g transform="translate(8, 39.5)"><rect width="575.359375" height="33.5" stroke="black" fill="white" stroke-width="2" transform="translate(0, 0)" rx="3"/><text fill="black" font-size="16" font-weight="normal" transform="translate(240.09765625, 8)" alignment-baseline="middle" font-family="Arial"><tspan x="0" dy="16" font-family="Arial" font-size="16" font-weight="normal">Python Script</tspan></text></g><g transform="translate(8, 81)"><rect width="575.359375" height="33.5" stroke="black" fill="white" stroke-width="2" transform="translate(0, 0)" rx="3"/><text fill="black" font-size="16" font-weight="normal" transform="translate(198.72265625, 8)" alignment-baseline="middle" font-family="Arial"><tspan x="0" dy="16" font-family="Arial" font-size="16" font-weight="normal">Generated Lua Bytecode</tspan></text></g><g transform="translate(8, 122.5)"><rect width="575.359375" height="233.5" stroke="black" fill="#fff" stroke-width="2" transform="translate(0, 0)" rx="2"/><g transform="translate(8, 8)"><rect width="406.3984375" height="217.5" stroke="black" fill="#fff" stroke-width="2" transform="translate(0, 0)" rx="2"/><g transform="translate(4, 4)"><rect width="127.8623046875" height="23.5" stroke="black" fill="white" stroke-width="0" transform="translate(0, 0)" rx="0"/><text fill="black" font-size="14" font-weight="normal" transform="translate(4, 4)" alignment-baseline="middle" font-family="Arial"><tspan x="0" dy="14" font-family="Arial" font-size="14" font-weight="normal">Lua Embedded VM</tspan></text></g><g transform="translate(8, 39.5)"><rect width="79.1328125" height="170" stroke="black" fill="white" stroke-width="2" transform="translate(0, 0)" rx="3"/><text fill="black" font-size="16" font-weight="normal" transform="translate(8, 76.25)" alignment-baseline="middle" font-family="Arial"><tspan x="0" dy="16" font-family="Arial" font-size="16" font-weight="normal">VM Core</tspan></text></g><g transform="translate(95.1328125, 39.5)"><rect width="303.265625" height="170" stroke="black" fill="#fff" stroke-width="2" transform="translate(0, 0)" rx="2"/><g transform="translate(4, 4)"><rect width="50.80078125" height="23.5" stroke="black" fill="white" stroke-width="0" transform="translate(0, 0)" rx="0"/><text fill="black" font-size="14" font-weight="normal" transform="translate(4, 4)" alignment-baseline="middle" font-family="Arial"><tspan x="0" dy="14" font-family="Arial" font-size="14" font-weight="normal">Library</tspan></text></g><g transform="translate(8, 39.5)"><rect width="128.96875" height="122.5" stroke="black" fill="white" stroke-width="2" transform="translate(0, 0)" rx="3"/><text fill="black" font-size="16" font-weight="normal" transform="translate(8, 52.5)" alignment-baseline="middle" font-family="Arial"><tspan x="0" dy="16" font-family="Arial" font-size="16" font-weight="normal">Standard Libray</tspan></text></g><g transform="translate(144.96875, 39.5)"><rect width="150.296875" height="122.5" stroke="black" fill="#fff" stroke-width="2" transform="translate(0, 0)" rx="2"/><g transform="translate(4, 4)"><rect width="85.8349609375" height="23.5" stroke="black" fill="white" stroke-width="0" transform="translate(0, 0)" rx="0"/><text fill="black" font-size="14" font-weight="normal" transform="translate(4, 4)" alignment-baseline="middle" font-family="Arial"><tspan x="0" dy="14" font-family="Arial" font-size="14" font-weight="normal">Lang Library</tspan></text></g><g transform="translate(8, 39.5)"><rect width="134.296875" height="33.5" stroke="black" fill="white" stroke-width="2" transform="translate(0, 0)" rx="3"/><text fill="black" font-size="16" font-weight="normal" transform="translate(12.44921875, 8)" alignment-baseline="middle" font-family="Arial"><tspan x="0" dy="16" font-family="Arial" font-size="16" font-weight="normal">Support Library</tspan></text></g><g transform="translate(8, 81)"><rect width="134.296875" height="33.5" stroke="black" fill="white" stroke-width="2" transform="translate(0, 0)" rx="3"/><text fill="black" font-size="16" font-weight="normal" transform="translate(8, 8)" alignment-baseline="middle" font-family="Arial"><tspan x="0" dy="16" font-family="Arial" font-size="16" font-weight="normal">Standard Library</tspan></text></g></g></g></g><g transform="translate(422.3984375, 8)"><rect width="144.9609375" height="217.5" stroke="black" fill="white" stroke-width="2" transform="translate(0, 0)" rx="3"/><text fill="black" font-size="16" font-weight="normal" transform="translate(8, 100)" alignment-baseline="middle" font-family="Arial"><tspan x="0" dy="16" font-family="Arial" font-size="16" font-weight="normal">Host provided API</tspan></text></g></g></g></svg>